<svg xmlns="http://www.w3.org/2000/svg" viewBox="0 0 122.88 112.75" style="enable-background:new 0 0 122.88 112.75" xml:space="preserve"><path d="M19.78 16.38h47.97c-.64 2.13-1.05 4.35-1.22 6.65l-4.71-.01 4.81 19.99h5.34a31.35 31.35 0 0 0 4.4 5.08h-8.51l4.08 16.99 11.76-1.6-2.86-11.92c2.39 1.52 5 2.73 7.77 3.56l1.79 7.44.85-.12c5.31-.76 4.95.45 5.37-4.55l.12-1.48a31.171 31.171 0 0 0 6.67-.54l-.53 6.82c-.52 6.16-.08 4.67-6.61 5.6l-59.96 7.63 3.17 9.21h64.59c.88 3.27 2.06 8.59 2.94 12.24H96.26l-1.03-3.73H43.62c-11.84-.2-10.65 3-13.49-7.22L9.77 12.46H0V5.37h17.13c.8 2.98 1.91 8 2.65 11.01zM97.56 0c13.98 0 25.32 11.34 25.32 25.32s-11.34 25.32-25.32 25.32S72.24 39.3 72.24 25.32 83.58 0 97.56 0zm-11.2 25.99c.34-1.97 2.59-3.07 4.36-2 .16.1.31.21.46.34l.01.01c.8.76 1.69 1.56 2.57 2.34l.76.68 9-9.44c.54-.56.93-.93 1.74-1.11 2.76-.61 4.7 2.77 2.75 4.83L96.79 33.43c-1.06 1.13-2.95 1.23-4.08.15-.65-.6-1.36-1.22-2.07-1.84-1.24-1.08-2.5-2.18-3.53-3.26-.63-.62-.9-1.64-.75-2.49zm-39.44 70.2c4.57 0 8.28 3.71 8.28 8.29 0 4.58-3.71 8.28-8.28 8.28-4.58 0-8.29-3.71-8.29-8.28 0-4.58 3.71-8.29 8.29-8.29zm34.17 0c4.57 0 8.28 3.71 8.28 8.29 0 4.58-3.71 8.28-8.28 8.28-4.58 0-8.29-3.71-8.29-8.28 0-4.58 3.71-8.29 8.29-8.29zM26.92 43.01h13.19l-4.79-20.02c-4.71 0-9.37-.01-13.92-.01l1.61 5.99.05-.01 3.86 14.05zM42.22 23l4.79 20.01h12.71l-4.81-20L42.22 23zm23.02 43-4.3-17.9H48.23l4.69 19.59L65.24 66zm-19.02 2.59-4.9-20.5h-13L34.4 70.2l11.82-1.61z" style="fill-rule:evenodd;clip-rule:evenodd"/></svg>